<?xml version="1.0" standalone="no"?>
<!DOCTYPE svg PUBLIC "-//W3C//DTD SVG 20010904//EN"
 "http://www.w3.org/TR/2001/REC-SVG-20010904/DTD/svg10.dtd">
<svg version="1.0" xmlns="http://www.w3.org/2000/svg"  viewBox="0 0 200.000000 200.000000"
 preserveAspectRatio="xMidYMid meet">
<metadata>
Created by potrace 1.15, written by Peter Selinger 2001-2017
</metadata>
<g transform="translate(0.000000,200.000000) scale(0.100000,-0.100000)"
fill="#000000" stroke="none">
<path d="M865 1970 c-82 -13 -171 -52 -225 -99 -27 -24 -47 -48 -43 -54 3 -5
2 -7 -3 -4 -6 3 -34 -17 -63 -44 -29 -27 -56 -49 -60 -49 -4 0 -13 -11 -19
-25 -10 -21 -9 -30 4 -50 20 -31 23 -31 17 -2 -4 21 -4 22 11 3 21 -26 20 -31
-8 -123 -32 -104 -41 -147 -28 -139 6 4 14 28 18 54 11 74 20 92 49 92 30 0
33 -24 9 -58 -9 -13 -18 -43 -20 -66 -4 -37 -2 -42 16 -41 21 1 63 48 53 59
-3 3 2 15 12 26 18 20 18 21 -3 50 -36 49 -30 72 30 108 50 31 270 64 300 46
7 -5 29 -7 49 -5 36 2 37 1 53 -46 18 -56 18 -93 -1 -86 -7 3 -13 1 -13 -5 0
-6 -3 -18 -7 -28 -5 -13 -3 -15 7 -9 10 6 11 2 5 -21 -4 -16 -8 -41 -9 -56 -1
-15 -4 -29 -7 -32 -10 -10 -83 -36 -101 -36 -11 0 -33 -8 -49 -17 -23 -14 -29
-24 -29 -51 0 -19 -12 -73 -26 -120 -23 -74 -25 -90 -14 -121 23 -70 -17 -118
-83 -100 -25 7 -43 7 -57 -1 -35 -19 -24 23 25 94 56 79 75 132 75 205 l-1 56
-83 42 c-92 46 -114 46 -157 6 -33 -31 -42 -70 -28 -131 8 -40 16 -52 51 -75
47 -30 80 -34 122 -12 37 19 36 20 36 -12 0 -35 -45 -113 -100 -176 -34 -38
-48 -48 -67 -44 -19 3 -25 -1 -30 -22 -9 -34 -8 -42 28 -134 43 -109 121 -225
165 -243 39 -16 39 -18 19 -89 l-16 -52 -96 -39 c-123 -48 -253 -115 -303
-154 -33 -26 -100 -115 -100 -133 0 -4 412 -7 915 -7 l915 0 0 53 0 52 -138
81 c-75 45 -180 102 -232 127 -147 70 -176 96 -222 196 -42 91 -42 90 -17 219
10 48 13 52 38 52 37 0 58 26 117 143 41 82 49 109 52 166 4 61 2 70 -17 83
-20 14 -20 18 -10 74 7 32 12 106 12 164 1 124 -23 211 -84 301 -37 55 -119
147 -119 134 0 -4 -16 7 -35 24 -49 43 -77 55 -180 81 -99 25 -222 33 -300 20z
m62 -844 c14 -24 79 -36 144 -25 33 5 76 8 97 6 35 -4 37 -6 40 -43 2 -29 -3
-46 -18 -63 -11 -13 -20 -30 -20 -38 0 -8 -6 -21 -12 -28 -47 -52 -68 -87 -68
-111 0 -8 -6 -13 -12 -11 -7 1 -13 -7 -14 -18 -2 -48 -5 -56 -14 -50 -5 3 -10
22 -10 42 0 37 -23 73 -46 73 -8 0 -22 15 -31 34 -72 136 -72 138 -64 234 1
16 18 15 28 -2z m-20 -511 c13 -28 -19 -75 -46 -68 -10 3 -28 0 -38 -6 -15 -7
-25 -6 -41 5 -20 14 -22 14 -22 -1 0 -12 -4 -13 -17 -7 -10 6 -37 13 -60 17
-36 6 -43 10 -43 30 0 41 28 50 147 50 101 0 111 -2 120 -20z"/>
</g>
</svg>
